<svg width="30" height="30" viewBox="0 0 30 30" fill="none" xmlns="http://www.w3.org/2000/svg">
<circle cx="15" cy="15" r="15" fill="white"/>
<g clip-path="url(#clip0_195_11502)">
<path d="M15 27C8.38331 27 3 21.6167 3 15C3 8.38331 8.38331 3 15 3C21.6167 3 27 8.38331 27 15C27 21.6167 21.6167 27 15 27ZM15 4.5C9.21019 4.5 4.5 9.21019 4.5 15C4.5 20.7898 9.21019 25.5 15 25.5C20.7898 25.5 25.5 20.7898 25.5 15C25.5 9.21019 20.7898 4.5 15 4.5ZM13.2802 19.2803L20.7803 11.7802C21.0733 11.4872 21.0733 11.0126 20.7803 10.7198C20.4872 10.4269 20.0126 10.4267 19.7197 10.7198L12.75 17.6895L10.2802 15.2197C9.98719 14.9267 9.51263 14.9267 9.21975 15.2197C8.92688 15.5128 8.92669 15.9874 9.21975 16.2803L12.2198 19.2803C12.3662 19.4267 12.5582 19.5 12.75 19.5C12.9418 19.5 13.1338 19.4267 13.2802 19.2803Z" fill="#1F9900"/>
</g>
<defs>
<clipPath id="clip0_195_11502">
<rect width="24" height="24" fill="white" transform="translate(3 3)"/>
</clipPath>
</defs>
</svg>
