<svg width="16" height="16" viewBox="0 0 16 16" fill="none" xmlns="http://www.w3.org/2000/svg">
<path fill-rule="evenodd" clip-rule="evenodd" d="M9.24632 1.60041L12.5257 7.28042L15.805 12.9604C16.065 13.4107 16.065 13.9492 15.8051 14.3995C15.545 14.8499 15.0787 15.1191 14.5587 15.1191H1.44131C0.921327 15.1191 0.455012 14.8499 0.195021 14.3995C-0.065007 13.9492 -0.065007 13.4107 0.195021 12.9604L3.47436 7.28042L6.75374 1.60041C7.01373 1.15008 7.48005 0.880859 8.00003 0.880859C8.52005 0.880859 8.98633 1.15008 9.24632 1.60041ZM8.00003 11.481C8.36311 11.481 8.65746 11.7753 8.65746 12.1384C8.65746 12.5015 8.36311 12.7958 8.00003 12.7958C7.63695 12.7958 7.34259 12.5015 7.34259 12.1384C7.34259 11.7753 7.63695 11.481 8.00003 11.481ZM8.00036 4.21999C8.44191 4.21999 8.84264 4.58366 8.8185 5.03813L8.52628 10.5313H7.5621L7.18222 5.03813C7.15122 4.58924 7.5504 4.21999 8.00036 4.21999Z" fill="#CF190C"/>
</svg>
